<svg xmlns="http://www.w3.org/2000/svg" xmlns:xlink="http://www.w3.org/1999/xlink" viewBox="0 0 500 500"><defs><clipPath id="freepik--clip-path--inject-65"><path d="M345.74,279.28V397.71c17.29.35,32.91-1.54,45.07-8.26,25.41-14,37.92-38.42,41.41-66.94a168.7,168.7,0,0,0-.78-43.23Z" style="fill:none"></path></clipPath></defs><g id="freepik--Character--inject-65"><ellipse cx="240.79" cy="392.92" rx="83.32" ry="4.66" style="fill:#263238"></ellipse><path d="M206.13,201.89s-7.09,0-10.89,1-36.19,12.15-37,12.15-8.61-3-9.62-3-5.82,2.53-5.32,4.8,5.57,5.83,7.09,6.84,9.87-3,9.87-3,25.06-1.77,30.88-3,12.91-2,12.91-2Z" style="fill:#fff;stroke:#263238;stroke-linecap:round;stroke-linejoin:round"></path><path d="M156.42,223.2l-17.49-21.32-4.22-14.45a1,1,0,0,0-.35-.49,22.34,22.34,0,0,0-.44-3.32,49.29,49.29,0,0,0-7.33-16.42c-7.91-12-18.08-18.69-23.14-15.34s-2.84,15.34,5.07,27.3a49.33,49.33,0,0,0,12.25,13.16c.61.42,1.21.79,1.8,1.13l14.34,10.76,17.17,20.92a1.52,1.52,0,0,0,1.17.55,1.55,1.55,0,0,0,1-.34A1.52,1.52,0,0,0,156.42,223.2Zm-25.74-32.43,1.35-.27a5.46,5.46,0,0,1-.57,1.34Zm-27.79-30.12c-.07-.51-.11-1-.13-1.48l.86-.17,1.09,1.49-1.69.34Zm.21,1.34c-.07-.38-.13-.74-.18-1.1C103,161.25,103,161.61,103.1,162Zm22.34,21.62-1.09-1.49,1.69-.35,1.09,1.49Zm2.18.33,1.09,1.49-1.69.34-1.09-1.49Zm-3.77-2.5L122.77,180l1.69-.34,1.09,1.49Zm-10.46-17,1.09,1.49-1.69.34-1.1-1.49Zm-2.19-.33-1.08-1.49,1.69-.34,1.08,1.49Zm9.5,13-1.1-1.49,1.69-.35,1.1,1.49Zm2.18.33,1.09,1.49-1.7.34-1.08-1.49ZM119.12,175l-1.1-1.49,1.69-.34,1.1,1.49Zm-1.59-2.17-1.09-1.49,1.69-.34,1.09,1.49ZM116,170.63l-1.09-1.49,1.69-.34,1.09,1.49Zm-1.58-2.16-1.1-1.49,1.71-.34,1.08,1.49Zm-.82.16-1.69.35-1.1-1.49,1.69-.35Zm.49.68,1.09,1.49-1.69.33-1.09-1.49Zm1.58,2.16,1.09,1.48-1.69.35-1.09-1.49Zm1.58,2.16,1.1,1.49-1.69.35-1.1-1.49Zm1.58,2.17,1.1,1.49-1.7.33-1.09-1.49Zm1.59,2.16,1.08,1.48-1.69.35-1.08-1.49Zm1.58,2.16,1.08,1.49-1.69.35-1.08-1.49Zm1.75-2.83,1.69-.35,1.09,1.49-1.69.35Zm-.49-.68-1.1-1.49,1.7-.34,1.09,1.49Zm-1.58-2.17-1.1-1.49,1.69-.33,1.1,1.49ZM120,172.29,119,170.8l1.7-.35,1.09,1.49Zm-1.58-2.17-1.09-1.49,1.7-.34,1.08,1.49ZM116.88,168l-1.09-1.48,1.7-.35,1.08,1.49Zm-1.58-2.16-1.09-1.49,1.69-.35,1.09,1.49Zm-1.59-2.17-1.08-1.49,1.69-.33,1.09,1.48Zm-1.58-2.16L111.05,160l1.69-.35,1.08,1.49Zm-.82.17-1.69.34-1.08-1.49,1.69-.34ZM108,159.81,107,158.33l1.7-.35,1.08,1.49Zm.76,2.33-1.69.35L106,161l1.69-.35Zm.5.68,1.08,1.49-1.69.33-1.09-1.49Zm1.57,2.16,1.1,1.49-1.69.34-1.1-1.49Zm.17,4.16-1.69.34-1.1-1.49,1.69-.34Zm.49.68,1.09,1.48-1.69.34-1.09-1.48Zm1.58,2.15,1.09,1.49-1.7.35-1.08-1.49Zm1.58,2.17,1.1,1.49-1.71.34L113,174.48Zm1.58,2.17,1.09,1.48-1.69.34-1.09-1.49Zm1.59,2.15,1.08,1.49-1.69.35-1.09-1.49Zm1.58,2.17,1.08,1.49-1.69.34L117.75,181ZM121,182.8l1.09,1.48-1.7.34-1.08-1.49Zm.82-.18,1.69-.34,1.09,1.49-1.69.34Zm3.27,1.83,1.09,1.48-1.69.35-1.09-1.49Zm1.59,2.16,1.08,1.49-1.69.34L125,187Zm1.58,2.16,1.08,1.49-1.69.34-1.08-1.49Zm.82-.16,1.69-.35,1.08,1.49-1.69.35Zm-.5-.68-1.08-1.49,1.69-.33,1.08,1.49Zm-.16-4.15,1.7-.35,1.09,1.49-1.7.35Zm-.49-.68-1.09-1.49,1.69-.34,1.1,1.49Zm-1.58-2.17-1.09-1.49,1.69-.33,1.1,1.49Zm-.16-4.15,1.69-.34,1.09,1.49-1.69.34Zm-.49-.68-1.1-1.48,1.7-.35,1.09,1.49Zm-1.58-2.16-1.1-1.49,1.7-.34,1.09,1.49Zm-1.59-2.16-1.08-1.49,1.69-.34,1.09,1.49ZM121,169.61l-1.08-1.48,1.69-.35,1.08,1.49Zm-.15-4.16,1.69-.33,1.08,1.49-1.69.33Zm.26,1.66-1.69.34L118.31,166l1.69-.34Zm-3.27-1.82-1.09-1.49,1.69-.34L119.5,165Zm-1.59-2.17-1.08-1.48,1.69-.35,1.09,1.49ZM114.64,161l-1.08-1.49,1.69-.34,1.08,1.48Zm-1.58-2.17L112,157.31l1.69-.34,1.08,1.49Zm-.82.16-1.69.35-1.09-1.49,1.7-.35ZM109,157.14l-1.09-1.49,1.69-.33,1.09,1.49Zm-.82.17-1.69.34-1.09-1.49,1.69-.34Zm-.93,2.67-1.69.34-1.09-1.49,1.69-.34Zm-2,1.18,1.08,1.49-1.69.34-1.09-1.49Zm1.57,2.17,1.09,1.48-1.69.35-1.09-1.49Zm1.58,2.15,1.1,1.49-1.7.35-1.09-1.49Zm.17,4.16-1.69.35-1.1-1.49,1.69-.34Zm-2.51.51-.18,0-.3-.69Zm.06.56-.09-.19Zm.43.12,1.08,1.49-.65.13c-.27-.52-.53-1-.77-1.55Zm.81-.16,1.7-.35,1.09,1.49-1.7.35Zm3.28,1.81,1.08,1.49-1.69.34-1.08-1.49Zm1.58,2.17,1.09,1.48-1.7.35L110.49,175Zm1.58,2.16,1.09,1.49-1.69.33-1.09-1.47Zm1.59,2.16,1.08,1.49-1.69.34-1.09-1.49Zm.15,4.16-1.29.26c-.4-.47-.79-1-1.18-1.47l1.39-.28Zm-.26-1.65,1.69-.34,1.08,1.48-1.69.35Zm3.27,1.82,1.09,1.49-1.7.33-1.08-1.48Zm1.58,2.16,1.09,1.49-1.69.34-1.09-1.49Zm.82-.16,1.69-.35,1.09,1.49-1.69.34Zm3.28,1.82,1.08,1.49-1.69.34-1.09-1.49Zm1.58,2.17,1.08,1.47-1.69.35-1.08-1.49Zm-.51,3.23c-.32-.14-.64-.29-1-.46l.55-.11Zm.4-.73,1.69-.35,1.37,1.89a3.69,3.69,0,0,0,.85-.13l-1.4-1.92,1.69-.34,1.1,1.5a2.86,2.86,0,0,1-.41.37,4.76,4.76,0,0,1-4,.18Zm.56,1.1-.29-.09Zm6.09-3.83-.7-1,.76-.15Q132.36,188.54,132.31,189.06Zm0,0,0,.16Zm-.17,1s0,.06,0,.09Zm.22-2.93-1.25.24L130,185.93l1.69-.33.57.77C132.31,186.64,132.34,186.92,132.36,187.18Zm-.42-3.15c.05.25.08.48.12.72h0l-1.1-1.49.77-.16C131.79,183.42,131.88,183.73,131.94,184Zm-.4-1.66-1.07.22-1.1-1.48,1.69-.35C131.23,181.3,131.4,181.84,131.54,182.37Zm-2.66-1.94-1.09-1.49,1.69-.34,1.1,1.49Zm1.06-2.7-.13,0-1.09-1.48.55-.12c.46,1,.86,2,1.22,3C130.32,178.67,130.14,178.21,129.94,177.73Zm-1.71-2.13-1.09-1.49,1-.21q.41.78.78,1.56Zm-.43-2.4-1.15.23-1.09-1.49,1.39-.28C127.25,172.17,127.53,172.69,127.8,173.2Zm-2.09-3.61q.44.69.84,1.38h0c.1.17.2.33.29.5l-.29-.5-1.48.3L124,169.79l1.64-.34Zm-.81-1.27c.15.22.29.45.43.67-.14-.22-.28-.45-.43-.67s-.39-.57-.58-.85C124.51,167.75,124.71,168,124.9,168.32Zm.27.44-1.69.35-1.08-1.49,1.69-.34ZM120.91,163h0l.08.09h0c.22.25.43.52.65.79-.22-.26-.43-.53-.64-.79l1,1.4-1.69.34-1.09-1.48,1.68-.35-.28-.33Zm-1.86-2.1h0c.41.44.82.89,1.23,1.37l.07.07-1.61.33-1.09-1.49,1.4-.28-.58-.62Zm-2-2.06c.44.41.89.85,1.34,1.31l.1.1-1.29.25L116.07,159l.92-.18Zm-2.34-2,0,0,1.53,1.28.06,0-.73.15-1.08-1.48Zm-2.77-1.92h0c.13.08.26.15.4.25h0c.34.21.68.44,1,.68-.35-.24-.69-.47-1-.67l.88,1.19-1.69.34-1.09-1.48,1.5-.3c-.34-.2-.66-.39-1-.55C111.22,154.47,111.55,154.65,111.89,154.85Zm-2-.37-.67-.91a13.81,13.81,0,0,1,1.62.71ZM108,153.2l1.06,1.44-1.7.34L106,153.07a3.56,3.56,0,0,1,.58-.06A6.42,6.42,0,0,1,108,153.2Zm-3.46.35a2.73,2.73,0,0,1,.62-.3l1.39,1.9-1.7.34-1-1.32A3,3,0,0,1,104.56,153.55Zm-1.11,1.28.6.82-1,.2A5.84,5.84,0,0,1,103.45,154.83Zm-.59,1.85h0v0l1.68-.33,1.09,1.49-1.69.34-1.08-1.48a.77.77,0,0,0,0,.15C102.85,156.78,102.86,156.73,102.86,156.68Zm-.11,1.13.38.52-.39.08C102.74,158.21,102.74,158,102.75,157.81Zm.41,4.5.62.84-.41.09c.06.24.11.46.17.71C103.39,163.38,103.27,162.84,103.16,162.31Zm1.11,1.52,1.09,1.49-1.33.26c-.18-.54-.35-1.09-.48-1.61Zm0,2.48,1.58-.31,1.1,1.49-1.7.33-.85-1.16C104.36,166.55,104.31,166.43,104.27,166.31Zm.92,2.41,0-.13A.5.5,0,0,1,105.19,168.72Zm1.76,3.75c0,.1.11.2.16.31Zm.36.68.78-.15,1.08,1.48-1,.21C107.85,174.17,107.58,173.66,107.31,173.15Zm1.25,2.23,1.11-.23,1.08,1.49-1.26.26C109.17,176.39,108.86,175.89,108.56,175.38Zm1.65,2.66-.47-.74.18.28,1.33-.26,1.09,1.49-1.4.28C110.69,178.74,110.45,178.4,110.21,178Zm1.19,1.73,1.43-.28,1.09,1.47-1.41.3C112.13,180.77,111.77,180.28,111.4,179.77Zm2.88,3.71h0Zm.5.57,1.22-.24,1.08,1.49-1,.2C115.64,185,115.21,184.54,114.78,184.05Zm3.37,3.51c-.49-.45-1-.92-1.45-1.41l.88-.19,1.09,1.49Zm.69.64.32-.07.66.91ZM120,188l1.7-.34,1.08,1.48-1.69.35Zm3.34,3.51h0l-.37-.27,0,0a.8.8,0,0,0-.32-.13l-.63-.38.24.16-.29-.18-.17-.13.17.12,0,0-.4-.55,1.69-.34,1.08,1.49-1,.2,0,0Zm5.24,3.89a5.29,5.29,0,0,0,5.26-3.75l2.28,7.78a1.56,1.56,0,0,0-.89.34,1.65,1.65,0,0,0-.34.41l-6.37-4.78Z" style="fill:#263238"></path><path d="M144.87,215.56s3.55-.51,5.07.25,5.82,4.56,4.55,5.32-2.53,2.78-4.05,2.53-5.31-3.55-6.58-5.06" style="fill:#fff;stroke:#263238;stroke-linecap:round;stroke-linejoin:round"></path><path d="M153.23,214.8a22.79,22.79,0,0,1-5.83,1.26c-2.27,0-4.55,2-3.54,2.54s4.81,0,4.81,0,4.3,3.54,8.1.25" style="fill:#fff;stroke:#263238;stroke-linecap:round;stroke-linejoin:round"></path><path d="M302.17,210.88s10.1,8,11.08,9.55c2.88,4.52-1.25,19.11-2.75,25.74-1.36,6-3.72,13.83-3.38,14.34s5.8,4.61,6.14,6.82.68,4.78,0,5.29-1-1.36-1.2-2.39a8.39,8.39,0,0,0-1-2.38s-.68,4.94-.68,5.62-1.54,2.73-2.05,2.73-.34-2.38-.34-2.9-.17-4.6-.17-4.6-1,5.46-1.37,6.14-1.87,3.41-2.72,2.22.17-2.56.34-3.76.44-4.76.44-4.76-1.78,3.76-2.12,4.61-2.19,2.88-2.76,2.37.07-2.08.84-3.81a12.33,12.33,0,0,0,.2-3.65s-1.89-4.65-2.91-4.65-5.12,2-6.66,2.73-3.41.17-2.38-.51a47.17,47.17,0,0,0,4.26-3.58,15,15,0,0,1,3.24-2.56c.85-.34,5.1-1.82,5.1-1.82s0-17.62-.16-21.72c-.1-2.54-.09-5.35-.06-7.12A3.51,3.51,0,0,0,299.7,226l-2.82-2.15S292.61,213.44,302.17,210.88Z" style="fill:#fff;stroke:#263238;stroke-linecap:round;stroke-linejoin:round"></path><path d="M304.49,268.54a8,8,0,0,0-.2-2.71" style="fill:none;stroke:#263238;stroke-linecap:round;stroke-linejoin:round"></path><path d="M307.8,268.7a25.42,25.42,0,0,0-.07-2.87" style="fill:none;stroke:#263238;stroke-linecap:round;stroke-linejoin:round"></path><path d="M311,267.85a3.57,3.57,0,0,0-.46-2.14" style="fill:none;stroke:#263238;stroke-linecap:round;stroke-linejoin:round"></path><path d="M203.33,357.8s-7.5-1.88-10.06.68.85,6.83,0,9.9-1.54,8.87-.69,11.08,4.1,9.21,6.49,7.85,2.9-7.85,2.9-11.43.85-9.72,1.87-10.57S205.89,360.87,203.33,357.8Z" style="fill:#B0BEC5;stroke:#263238;stroke-linecap:round;stroke-linejoin:round"></path><path d="M238.81,311.41s-5.29,16.71-5.63,18.76a11.84,11.84,0,0,1-.85,3.07s-11.43,5.46-14.67,9.38-8,9.89-10.41,11.43a27.63,27.63,0,0,0-6.65,5.63c-1.36,1.87-.55,10.49,1.54,9,3.92-2.73,21.15-15,31.55-20.47,6.44-3.38,16.55-9.55,18.93-13s6.14-19.11,7.51-23.54S241.88,308.85,238.81,311.41Z" style="fill:#fff;stroke:#263238;stroke-linecap:round;stroke-linejoin:round"></path><path d="M212.77,348.49a34.4,34.4,0,0,1-5.52,5.56,27.63,27.63,0,0,0-6.65,5.63c-1.36,1.87-.55,10.49,1.54,9,2.25-1.57,8.92-6.31,16.16-11.09C212.47,357.86,212.42,351.64,212.77,348.49Z" style="fill:#263238;stroke:#263238;stroke-linecap:round;stroke-linejoin:round"></path><path d="M227.55,263.31A83.72,83.72,0,0,0,226,277.64c0,6.82,11.08,24.73,11.76,25.58s-1,8.36-1,8.36,1,2.73,8,3.75,16.37-.68,16.37-.68,7.51-14.84,10.92-24.22,4.6-28.83,4.6-28.83a56.11,56.11,0,0,1-19.1,3.07c-11.43,0-28.31-2.22-28.31-2.22S227.72,262.11,227.55,263.31Z" style="fill:#263238;stroke:#263238;stroke-linecap:round;stroke-linejoin:round"></path><path d="M237.77,189.24s-12.66-2.54-18.74.25-7.08,4-8.6,6.07a65.14,65.14,0,0,1-6.08,6.08,83.2,83.2,0,0,0-1.77,9.11,20.2,20.2,0,0,0,1.27,7.09l13.92,6.07s9.62,22.28,10.12,26.83,1.27,5.57-.25,6.58-3.29,4.31-2.28,6.08,11.65,2.53,17.21,3.29,23.8,1.26,28.35.25,7.09-3.29,7.09-5.82a44.46,44.46,0,0,0-1-6.84c-.26-1.77-1.77-31.89-1.77-31.89s12.44,4.68,15,6.2a56.74,56.74,0,0,0,7.34,3.29s-1.26-8.1,1.27-13.66,4.3-6.59,4.3-6.59-18.4-15.48-19.67-15.73-12.52-5.65-18.34-6.66S237.77,189.24,237.77,189.24Z" style="fill:#B0BEC5;stroke:#263238;stroke-linecap:round;stroke-linejoin:round"></path><path d="M217.77,223.91a158.87,158.87,0,0,1-4-18.42" style="fill:none;stroke:#263238;stroke-linecap:round;stroke-linejoin:round"></path><path d="M210,204.29s4.1,13.65,7.51,18.08" style="fill:none;stroke:#263238;stroke-linecap:round;stroke-linejoin:round"></path><path d="M275.23,222.39a31.15,31.15,0,0,1-10.67-16.22" style="fill:none;stroke:#263238;stroke-linecap:round;stroke-linejoin:round"></path><path d="M274.63,222s-5.46-.34-11.26-7.16" style="fill:none;stroke:#263238;stroke-linecap:round;stroke-linejoin:round"></path><path d="M220.9,231.75s14.33,23.54,23.2,29.17" style="fill:none;stroke:#263238;stroke-linecap:round;stroke-linejoin:round"></path><path d="M226.87,246.25s6.48,11.09,9.72,13.65" style="fill:none;stroke:#263238;stroke-linecap:round;stroke-linejoin:round"></path><path d="M236.08,187.71a9,9,0,0,0-6.83,3.92c-2.32,3.78-3.34,21.94-3.19,22.67s8.42-6,15-5.81,13.22,9.59,13.22,9.59a30.38,30.38,0,0,0,2.91-18.16C255.7,189.16,244.65,185.24,236.08,187.71Z" style="fill:#263238;stroke:#263238;stroke-linecap:round;stroke-linejoin:round"></path><path d="M253,164.6a4.68,4.68,0,0,0,5.05-2.53c1.77-3.29.51-5.06-1.77-5.06h-4s.87-5.08-3.17-5.08-11.73,4.1-11.73,4.1-12.51,1.74-12.8,10.5c-.41,12.27,7.21,14.76,7.21,14.76s2,2.28,3.8.51a9,9,0,0,0,2.27-3.8s3.54-1,3.54-3.54-4-4.8-2.27-6.32S253,164.6,253,164.6Z" style="fill:#263238;stroke:#263238;stroke-linecap:round;stroke-linejoin:round"></path><path d="M242.65,157.77s-.58-2.92,1.46-2.92,3.07,3.69,1.9,6.61-9.2,3.61-13.87,5.66-6.42,7-6.42,7" style="fill:none;stroke:#fff;stroke-linecap:round;stroke-linejoin:round;stroke-width:0.5px"></path><path d="M228.34,176.75s1.17-3.21,5.84-5" style="fill:none;stroke:#fff;stroke-linecap:round;stroke-linejoin:round;stroke-width:0.5px"></path><path d="M260,297.76s3.92,9.89,4.77,15.35.52,26.27,1.2,34.29,6.82,28,6.82,28,9.55-4.95,13-6.65,5.8-2.9,5.8-.34-2,9.21-4.94,11.08-8.53,3.93-9.21,5.46-4.1,6.14-6.49,6.65-4.43-2.38-5.28-4.26-2.22-8.87-2.22-8.87-8.19-18.08-12.11-25.93-6.14-16.71-6.14-21.49,2.73-13.13,2.39-14.33-7.85-12.28-7.85-12.28,1-4.43,7.68-6.31A26.89,26.89,0,0,1,260,297.76Z" style="fill:#fff;stroke:#263238;stroke-linecap:round;stroke-linejoin:round"></path><path d="M285.71,368.72c-3.41,1.7-13,6.65-13,6.65s-3.64-11.84-5.63-20.95a14,14,0,0,0-9.38,4.06c-.92.93-1.7,1.78-2.38,2.58,3.82,8.13,8,17.38,8,17.38s1.36,7,2.22,8.87,2.9,4.78,5.28,4.26,5.8-5.11,6.49-6.65,6.31-3.58,9.21-5.46,4.94-8.53,4.94-11.08S289.13,367,285.71,368.72Z" style="fill:#263238;stroke:#263238;stroke-linecap:round;stroke-linejoin:round"></path><path d="M264.53,383.74a24.62,24.62,0,0,0,1.06,3.57c.85,1.88,2.9,4.78,5.28,4.26s5.8-5.11,6.49-6.65,6.31-3.58,9.21-5.46,4.94-8.53,4.94-11.08-2.38-1.37-5.8.34-13,6.65-13,6.65A18.56,18.56,0,0,0,264.53,383.74Z" style="fill:#B0BEC5;stroke:#263238;stroke-linecap:round;stroke-linejoin:round"></path><path d="M277.36,384.92c.68-1.53,6.31-3.58,9.21-5.46s4.94-8.53,4.94-11.08c0-1.29-.6-1.63-1.64-1.43-3.93,2.94-15.64,11.95-19.17,17.46-1.88,2.94-2.53,5.07-2.35,6.51a3.11,3.11,0,0,0,2.52.65C273.26,391.06,276.67,386.46,277.36,384.92Z" style="fill:#fff;stroke:#263238;stroke-linecap:round;stroke-linejoin:round"></path><path d="M246.31,272.18s6.48,6.14,9.21,11.42,5.8,15.53,5.8,15.53-9.21.51-13,1.7-9.21,9.55-9.21,9.55-6-10.06-9.38-16.71-4.44-13.31-3.58-18.42,2-5.8,2-5.8" style="fill:#263238;stroke:#263238;stroke-linecap:round;stroke-linejoin:round"></path><path d="M248,270.47s9.55,8,12.28,16.89" style="fill:none;stroke:#fff;stroke-linecap:round;stroke-linejoin:round"></path><path d="M260.47,279.51s3.58,6.14,4.09,9.89" style="fill:none;stroke:#fff;stroke-linecap:round;stroke-linejoin:round"></path><path d="M232.7,185.19l2.79,9.11a26.63,26.63,0,0,0-.26,10.12c1,4.81,2.79,8.35,5.07,8.35s11.39-9.11,12.15-13.92a50.87,50.87,0,0,0,.75-6.58,20.33,20.33,0,0,1-10.37-2.78C237.77,186.45,232.7,181.89,232.7,185.19Z" style="fill:#fff;stroke:#263238;stroke-linecap:round;stroke-linejoin:round"></path><path d="M232,180.28s-4.38-2.18-4.38.86a7.11,7.11,0,0,0,3.11,5.71,2.3,2.3,0,0,0,3-.5l7.84,7.08c2.52,2.27,7.08,4.8,10.36,2.27s3-8.09,3-8.09,2-9.35,1-14.67a24.44,24.44,0,0,0-3-8.34s-10.37-1.27-14.67,2-3.29,4.55-1.52,6.07,2.53,2.78,1.77,3.54a14.71,14.71,0,0,1-2.78,1.77S235.81,182.3,232,180.28Z" style="fill:#fff;stroke:#263238;stroke-linecap:round;stroke-linejoin:round"></path><path d="M250.45,175.92s2,6.33,1.54,6.79-3.86.77-3.86.77" style="fill:none;stroke:#263238;stroke-linecap:round;stroke-linejoin:round"></path><path d="M249.83,174.37s1.24-2.93,4.17-2.93" style="fill:none;stroke:#263238;stroke-linecap:round;stroke-linejoin:round"></path><path d="M247.21,175.76s-4.79-1.54-7.26.62" style="fill:none;stroke:#263238;stroke-linecap:round;stroke-linejoin:round"></path><line x1="247.21" y1="188.42" x2="249.83" y2="188.42" style="fill:none;stroke:#263238;stroke-linecap:round;stroke-linejoin:round"></line><path d="M245.2,178.31c0,.57-.24,1-.54,1s-.54-.46-.54-1,.24-1,.54-1S245.2,177.74,245.2,178.31Z" style="fill:#263238"></path><ellipse cx="252.53" cy="175.53" rx="0.54" ry="1.03" style="fill:#263238"></ellipse><line x1="235.49" y1="194.3" x2="238.52" y2="202.65" style="fill:none;stroke:#263238;stroke-linecap:round;stroke-linejoin:round"></line></g></svg>